<svg width="378" height="378" xmlns="http://www.w3.org/2000/svg" xmlns:xlink="http://www.w3.org/1999/xlink" xml:space="preserve" overflow="hidden"><g transform="translate(-451 -275)"><path d="M783.325 471.875 805.375 494.083 702.528 597.875 647.875 542.75 669.925 520.542 702.528 553.302 783.325 471.875M624.25 338C659.043 338 687.25 366.206 687.25 401 687.25 435.793 659.043 464 624.25 464 589.456 464 561.25 435.793 561.25 401 561.25 366.206 589.456 338 624.25 338M624.25 369.5C606.853 369.5 592.75 383.603 592.75 401 592.75 418.397 606.853 432.5 624.25 432.5 641.647 432.5 655.75 418.397 655.75 401 655.75 383.603 641.647 369.5 624.25 369.5M624.25 479.75C634.96 479.75 647.875 481.167 662.208 483.845L635.905 510.148 624.25 509.675C577.472 509.675 528.175 532.67 528.175 542.75L528.175 560.075 625.825 560.075 655.75 590 498.25 590 498.25 542.75C498.25 500.855 582.198 479.75 624.25 479.75Z" fill="#215F9A"/></g></svg>