<svg width="212" height="212" xmlns="http://www.w3.org/2000/svg" xmlns:xlink="http://www.w3.org/1999/xlink" xml:space="preserve" overflow="hidden"><g transform="translate(-533 -254)"><path d="M568.333 280.5C558.528 280.5 550.667 288.362 550.667 298.167L550.667 386.5C550.667 396.257 558.576 404.167 568.333 404.167L639 404.167 639 448.333 665.5 421.833 692 448.333 692 404.167 709.667 404.167C719.424 404.167 727.333 396.257 727.333 386.5L727.333 324.667 727.333 307 727.333 298.167C727.333 288.41 719.424 280.5 709.667 280.5L674.333 280.5 674.333 280.5 568.333 280.5M639 298.167 665.5 315.833 692 298.167 692 329.083 718.5 342.333 692 355.583 692 386.5 665.5 368.833 639 386.5 639 355.583 612.5 342.333 639 329.083 639 298.167M568.333 298.167 612.5 298.167 612.5 315.833 568.333 315.833 568.333 298.167M568.333 333.5 594.833 333.5 594.833 351.167 568.333 351.167 568.333 333.5M568.333 368.833 612.5 368.833 612.5 386.5 568.333 386.5 568.333 368.833Z" fill="#215F9A"/></g></svg>