<svg width="297" height="298" xmlns="http://www.w3.org/2000/svg" xmlns:xlink="http://www.w3.org/1999/xlink" xml:space="preserve" overflow="hidden"><g transform="translate(-21 -81)"><path d="M284.625 24.75 12.375 24.75C5.54047 24.75-2.74781e-15 30.2905 0 37.125L0 259.875C0 266.71 5.54047 272.25 12.375 272.25L284.625 272.25C291.46 272.25 297 266.71 297 259.875L297 37.125C297 30.2905 291.46 24.75 284.625 24.75M272.25 247.5 247.5 247.5 247.5 235.125 185.625 235.125 185.625 247.5 24.75 247.5 24.75 49.5 272.25 49.5 272.25 247.5M127.339 120.161C127.339 108.474 136.813 99 148.5 99 160.256 99 169.661 108.529 169.661 120.161 169.661 131.917 160.256 141.446 148.5 141.446 136.744 141.446 127.339 131.917 127.339 120.161M70.6612 139.714C70.6612 130.928 77.8388 123.75 86.625 123.75 95.4416 123.75 102.589 130.898 102.589 139.714 102.589 148.5 95.4112 155.554 86.625 155.554 77.8388 155.554 70.6612 148.5 70.6612 139.714M194.411 139.714C194.411 130.898 201.559 123.75 210.375 123.75 219.191 123.75 226.339 130.898 226.339 139.714 226.339 148.5 219.161 155.554 210.375 155.554 201.589 155.554 194.411 148.5 194.411 139.714M247.5 187.357 247.5 198 198 198 173.25 198 123.75 198 99 198 49.5 198 49.5 187.357C49.5 175.725 68.6813 166.196 86.625 166.196 93.4313 166.196 100.361 167.557 106.425 169.909 115.706 161.37 132.412 155.554 148.5 155.554 164.588 155.554 181.294 161.37 190.575 169.909 196.639 167.557 203.569 166.196 210.375 166.196 228.319 166.196 247.5 175.725 247.5 187.357Z" fill="#215F9A" transform="matrix(1 0 0 1.00337 21 81)"/></g></svg>