<svg width="378" height="378" xmlns="http://www.w3.org/2000/svg" xmlns:xlink="http://www.w3.org/1999/xlink" xml:space="preserve" overflow="hidden"><g transform="translate(-863 -275)"><path d="M957.5 621.5C931.405 621.5 910.25 600.346 910.25 574.25 910.25 564.8 913.085 555.98 918.125 548.578L1004.75 398.008 1004.75 369.5C996.051 369.5 989 362.448 989 353.75L989 338C989 320.603 1003.1 306.5 1020.5 306.5L1083.5 306.5C1100.9 306.5 1115 320.603 1115 338L1115 353.75C1115 362.448 1107.95 369.5 1099.25 369.5L1099.25 398.008 1185.88 548.578C1190.92 555.98 1193.75 564.8 1193.75 574.25 1193.75 600.346 1172.6 621.5 1146.5 621.5L957.5 621.5M941.75 574.25C941.75 582.949 948.802 590 957.5 590L1146.5 590C1155.2 590 1162.25 582.949 1162.25 574.25 1162.25 570.943 1161.15 567.792 1159.42 565.272L1123.35 502.903 1083.5 542.75 1003.65 462.898 944.585 565.272C942.852 567.792 941.75 570.943 941.75 574.25M1067.75 432.5C1059.05 432.5 1052 439.551 1052 448.25 1052 456.949 1059.05 464 1067.75 464 1076.45 464 1083.5 456.949 1083.5 448.25 1083.5 439.551 1076.45 432.5 1067.75 432.5Z" fill="#215F9A"/></g></svg>