<svg width="271" height="272" xmlns="http://www.w3.org/2000/svg" xmlns:xlink="http://www.w3.org/1999/xlink" xml:space="preserve" overflow="hidden"><g transform="translate(-849 -50)"><path d="M214.542 22.5833 158.083 73.3958 158.083 197.604 214.542 146.792 214.542 22.5833M73.3958 56.4583C51.3771 56.4583 27.6646 60.975 11.2917 73.3958L11.2917 238.932C11.2917 241.755 14.1146 244.577 16.9375 244.577 18.0667 244.577 18.6313 243.787 19.7604 243.787 35.0042 236.448 57.0229 231.479 73.3958 231.479 95.4146 231.479 119.127 235.996 135.5 248.417 150.744 238.819 178.408 231.479 197.604 231.479 216.235 231.479 235.431 234.98 251.24 243.448 252.369 244.013 252.933 243.787 254.062 243.787 256.885 243.787 259.708 240.964 259.708 238.141L259.708 73.3958C252.933 68.3146 245.594 64.9271 237.125 62.1042L237.125 214.542C224.704 210.59 211.154 208.896 197.604 208.896 178.408 208.896 150.744 216.235 135.5 225.833L135.5 73.3958C119.127 60.975 95.4146 56.4583 73.3958 56.4583Z" fill="#215F9A" transform="matrix(1 0 0 1.00369 849 50)"/></g></svg>