<svg width="378" height="378" xmlns="http://www.w3.org/2000/svg" xmlns:xlink="http://www.w3.org/1999/xlink" xml:space="preserve" overflow="hidden"><g transform="translate(-39 -275)"><path d="M180.75 353.75C215.543 353.75 243.75 381.956 243.75 416.75 243.75 451.543 215.543 479.75 180.75 479.75 145.956 479.75 117.75 451.543 117.75 416.75 117.75 381.956 145.956 353.75 180.75 353.75M180.75 511.25C222.803 511.25 306.75 532.355 306.75 574.25L306.75 605.75 54.75 605.75 54.75 574.25C54.75 532.355 138.698 511.25 180.75 511.25M302.97 359.42C334.785 394.07 334.785 442.107 302.97 473.922L276.51 447.305C289.74 428.72 289.74 404.622 276.51 386.038L302.97 359.42M355.103 306.5C417 370.288 416.527 465.732 355.103 527L329.43 501.328C373.057 451.242 373.057 379.737 329.43 332.172L355.103 306.5Z" fill="#215F9A"/></g></svg>